<svg width="53" height="56" viewBox="0 0 53 56" fill="none" xmlns="http://www.w3.org/2000/svg">
<g clip-path="url(#clip0_12_539)">
<path fill-rule="evenodd" clip-rule="evenodd" d="M0 27.7826C0 41.5185 9.45684 52.9406 21.8252 55.2568V35.3022H15.2776V27.6284H21.8252V21.488C21.8252 14.5809 26.044 10.7451 32.011 10.7451C33.901 10.7451 35.9395 11.0514 37.8295 11.3576V18.4189H34.4837C31.282 18.4189 30.5552 20.1066 30.5552 22.257V27.6284H37.5393L36.376 35.3022H30.5552V55.2568C42.9235 52.9406 52.3804 41.5208 52.3804 27.7826C52.3804 12.5018 40.5948 0 26.1902 0C11.7856 0 0 12.5018 0 27.7826Z" fill="white"/>
</g>
<defs>
<clipPath id="clip0_12_539">
<rect width="52.3804" height="55.2568" fill="white"/>
</clipPath>
</defs>
</svg>
