<svg width="55" height="53" viewBox="0 0 55 53" fill="none" xmlns="http://www.w3.org/2000/svg">
<path fill-rule="evenodd" clip-rule="evenodd" d="M27.5 -0.916748C12.3063 -0.916748 0 11.3895 0 26.5833C0 38.752 7.87188 49.0301 18.8031 52.6739C20.1781 52.9145 20.6938 52.0895 20.6938 51.3676C20.6938 50.7145 20.6594 48.5489 20.6594 46.2457C13.75 47.5176 11.9625 44.5614 11.4125 43.0145C11.1031 42.2239 9.7625 39.7832 8.59375 39.1301C7.63125 38.6145 6.25625 37.3426 8.55937 37.3083C10.725 37.2739 12.2719 39.302 12.7875 40.127C15.2625 44.2864 19.2156 43.1176 20.7969 42.3957C21.0375 40.6082 21.7594 39.4051 22.55 38.7176C16.4313 38.0301 10.0375 35.6582 10.0375 25.1395C10.0375 22.1489 11.1031 19.6739 12.8563 17.7489C12.5813 17.0614 11.6188 14.2426 13.1313 10.4614C13.1313 10.4614 15.4344 9.7395 20.6938 13.2801C22.8937 12.6614 25.2313 12.352 27.5688 12.352C29.9062 12.352 32.2438 12.6614 34.4438 13.2801C39.7031 9.70513 42.0063 10.4614 42.0063 10.4614C43.5188 14.2426 42.5563 17.0614 42.2813 17.7489C44.0344 19.6739 45.1 22.1145 45.1 25.1395C45.1 35.6926 38.6719 38.0301 32.5531 38.7176C33.55 39.577 34.4094 41.227 34.4094 43.8051C34.4094 47.4832 34.375 50.4395 34.375 51.3676C34.375 52.0895 34.8906 52.9489 36.2656 52.6739C41.7248 50.8307 46.4685 47.3221 49.8292 42.6418C53.1899 37.9615 54.9984 32.3452 55 26.5833C55 11.3895 42.6938 -0.916748 27.5 -0.916748Z" fill="white"/>
</svg>
