<svg width="53" height="56" viewBox="0 0 53 56" fill="none" xmlns="http://www.w3.org/2000/svg">
<path fill-rule="evenodd" clip-rule="evenodd" d="M16.4942 2.4542C19.0543 2.32987 19.8706 2.30225 26.3919 2.30225C32.9133 2.30225 33.7296 2.33218 36.2875 2.4542C38.8454 2.57623 40.5914 3.00677 42.1192 3.63071C43.7189 4.26847 45.1703 5.26539 46.3707 6.55471C47.5929 7.81871 48.5358 9.34748 49.1381 11.0374C49.7318 12.6491 50.1377 14.491 50.2556 17.1847C50.3734 19.89 50.3996 20.7511 50.3996 27.6283C50.3996 34.5077 50.3712 35.3688 50.2556 38.0695C50.1399 40.7632 49.7318 42.6051 49.1381 44.2168C48.5357 45.9069 47.5913 47.4383 46.3707 48.7041C45.1703 49.9934 43.7189 50.988 42.1192 51.6235C40.5914 52.2497 38.8454 52.678 36.2918 52.8023C33.7296 52.9266 32.9133 52.9543 26.3919 52.9543C19.8706 52.9543 19.0543 52.9243 16.4942 52.8023C13.9407 52.6803 12.1947 52.2497 10.6669 51.6235C9.06478 50.988 7.61319 49.9917 6.4132 48.7041C5.19182 47.4393 4.24665 45.9088 3.64359 44.2191C3.05213 42.6074 2.64618 40.7655 2.52832 38.0718C2.41047 35.3665 2.38428 34.5054 2.38428 27.6283C2.38428 20.7488 2.41265 19.8877 2.52832 17.1893C2.644 14.491 3.05213 12.6491 3.64359 11.0374C4.24754 9.34767 5.19343 7.81713 6.41538 6.55241C7.61367 5.26424 9.0638 4.26718 10.6647 3.63071C12.1925 3.00677 13.9385 2.57853 16.4921 2.4542H16.4942ZM36.0932 7.01288C33.5615 6.89086 32.802 6.86553 26.3919 6.86553C19.9819 6.86553 19.2224 6.89086 16.6907 7.01288C14.3488 7.1257 13.0786 7.53782 12.2318 7.88548C11.1122 8.34595 10.3112 8.89161 9.47091 9.77802C8.67439 10.5955 8.06139 11.5906 7.67688 12.6905C7.34732 13.5838 6.95665 14.9238 6.8497 17.3942C6.73403 20.065 6.71002 20.8662 6.71002 27.6283C6.71002 34.3903 6.73403 35.1915 6.8497 37.8623C6.95665 40.3327 7.34732 41.6727 7.67688 42.566C8.061 43.6642 8.67429 44.6612 9.47091 45.4785C10.2457 46.3189 11.1907 46.9658 12.2318 47.371C13.0786 47.7187 14.3488 48.1308 16.6907 48.2436C19.2224 48.3657 19.9797 48.391 26.3919 48.391C32.8042 48.391 33.5615 48.3657 36.0932 48.2436C38.4351 48.1308 39.7053 47.7187 40.5521 47.371C41.6717 46.9106 42.4727 46.3649 43.313 45.4785C44.1096 44.6612 44.7229 43.6642 45.107 42.566C45.4366 41.6727 45.8272 40.3327 45.9342 37.8623C46.0499 35.1915 46.0739 34.3903 46.0739 27.6283C46.0739 20.8662 46.0499 20.065 45.9342 17.3942C45.8272 14.9238 45.4366 13.5838 45.107 12.6905C44.6705 11.5094 44.1533 10.6644 43.313 9.77802C42.538 8.93783 41.5947 8.29118 40.5521 7.88548C39.7053 7.53782 38.4351 7.1257 36.0932 7.01288ZM23.3255 35.4356C25.038 36.1876 26.9449 36.2891 28.7205 35.7227C30.4961 35.1564 32.0302 33.9573 33.0609 32.3302C34.0915 30.7032 34.5547 28.7492 34.3713 26.8019C34.188 24.8547 33.3695 23.035 32.0556 21.6536C31.218 20.7706 30.2053 20.0945 29.0903 19.6739C27.9753 19.2534 26.7857 19.0988 25.6073 19.2214C24.4289 19.3441 23.2909 19.7408 22.2753 20.383C21.2597 21.0253 20.3917 21.8971 19.7338 22.9357C19.0759 23.9743 18.6444 25.1539 18.4705 26.3895C18.2967 27.6251 18.3846 28.886 18.7281 30.0815C19.0716 31.2769 19.6621 32.3771 20.4571 33.3029C21.252 34.2288 22.2317 34.9571 23.3255 35.4356ZM17.6662 18.4234C18.8121 17.2146 20.1725 16.2557 21.6696 15.6015C23.1668 14.9473 24.7714 14.6106 26.3919 14.6106C28.0125 14.6106 29.6171 14.9473 31.1143 15.6015C32.6114 16.2557 33.9718 17.2146 35.1176 18.4234C36.2635 19.6322 37.1725 21.0673 37.7926 22.6466C38.4128 24.226 38.7319 25.9188 38.7319 27.6283C38.7319 29.3378 38.4128 31.0305 37.7926 32.6099C37.1725 34.1893 36.2635 35.6243 35.1176 36.8331C32.8034 39.2744 29.6647 40.6459 26.3919 40.6459C23.1192 40.6459 19.9804 39.2744 17.6662 36.8331C15.3521 34.3918 14.0519 31.0807 14.0519 27.6283C14.0519 24.1758 15.3521 20.8647 17.6662 18.4234ZM41.4688 16.5493C41.7527 16.2667 41.98 15.9269 42.1373 15.55C42.2945 15.1731 42.3785 14.7667 42.3841 14.355C42.3898 13.9432 42.3172 13.5344 42.1704 13.1529C42.0237 12.7713 41.8058 12.4246 41.5298 12.1334C41.2538 11.8422 40.9252 11.6124 40.5634 11.4576C40.2017 11.3028 39.8142 11.2262 39.4239 11.2322C39.0336 11.2382 38.6484 11.3267 38.2911 11.4926C37.9338 11.6585 37.6117 11.8983 37.3438 12.1978C36.8229 12.7804 36.5377 13.5542 36.5487 14.355C36.5598 15.1557 36.8663 15.9205 37.4031 16.4868C37.9399 17.0531 38.6648 17.3764 39.4239 17.388C40.183 17.3997 40.9165 17.0988 41.4688 16.5493Z" fill="white"/>
</svg>
