<svg width="53" height="56" viewBox="0 0 53 56" fill="none" xmlns="http://www.w3.org/2000/svg">
<path fill-rule="evenodd" clip-rule="evenodd" d="M2.7876 6.534C2.7876 5.41167 3.21023 4.33531 3.96253 3.5417C4.71482 2.7481 5.73516 2.30225 6.79906 2.30225H46.7871C47.3144 2.30134 47.8366 2.41015 48.3239 2.62243C48.8112 2.83472 49.2541 3.14632 49.6271 3.5394C50.0001 3.93247 50.296 4.3993 50.4978 4.91316C50.6995 5.42701 50.8032 5.9778 50.8029 6.534V48.7179C50.8035 49.2742 50.7001 49.8252 50.4986 50.3393C50.2972 50.8534 50.0016 51.3205 49.6288 51.714C49.256 52.1075 48.8133 52.4196 48.3261 52.6324C47.8389 52.8452 47.3166 52.9546 46.7893 52.9543H6.79906C6.27209 52.9543 5.75027 52.8447 5.26344 52.6319C4.7766 52.4191 4.33428 52.1072 3.96176 51.714C3.58923 51.3208 3.29379 50.854 3.09233 50.3404C2.89086 49.8267 2.78731 49.2761 2.7876 48.7202V6.534ZM21.7929 21.6145H28.2947V25.0588C29.2331 23.0788 31.6339 21.2968 35.2416 21.2968C42.158 21.2968 43.7971 25.2407 43.7971 32.477V45.8814H36.7977V34.1255C36.7977 30.0043 35.8593 27.6789 33.476 27.6789C30.1694 27.6789 28.7945 30.1862 28.7945 34.1255V45.8814H21.7929V21.6145ZM9.78911 45.566H16.7906V21.2968H9.78911V45.5637V45.566ZM17.7924 13.3812C17.8056 14.0136 17.6989 14.6424 17.4786 15.2308C17.2583 15.8191 16.9289 16.355 16.5096 16.8072C16.0903 17.2594 15.5896 17.6187 15.0369 17.8639C14.4842 18.1092 13.8906 18.2356 13.291 18.2356C12.6913 18.2356 12.0977 18.1092 11.545 17.8639C10.9923 17.6187 10.4916 17.2594 10.0723 16.8072C9.65303 16.355 9.32356 15.8191 9.10328 15.2308C8.88299 14.6424 8.77632 14.0136 8.78952 13.3812C8.81543 12.1399 9.30106 10.9587 10.1424 10.0904C10.9838 9.2222 12.114 8.73602 13.291 8.73602C14.4679 8.73602 15.5981 9.2222 16.4395 10.0904C17.2808 10.9587 17.7665 12.1399 17.7924 13.3812Z" fill="white"/>
</svg>
