<svg width="512" height="512" viewBox="0 0 512 512" fill="none" xmlns="http://www.w3.org/2000/svg">
<path d="M256 0C114.6 0 0 114.6 0 256C0 397.4 114.6 512 256 512C397.4 512 512 397.4 512 256C512 114.6 397.4 0 256 0ZM256 464C141.3 464 48 370.69 48 256C48 141.31 141.3 48 256 48C370.7 48 464 141.31 464 256C464 370.69 370.7 464 256 464ZM256 336C238 336 224 350 224 368C224 386 237.1 400 256 400C273.1 400 288 386 288 368C288 350 273.1 336 256 336ZM289.1 128H238C199 128 168 159 168 198C168 211 179 222 192 222C205 222 216 211 216 198C216 186 225.1 176 237.1 176H288.2C301.1 176 312 186 312 198C312 206 308 212.1 301 216.1L244 251C236 256 232 264 232 272V288C232 301 243 312 256 312C269 312 280 301 280 288V286L325.1 258C346.1 245 359.1 222 359.1 198C360 159 329 128 289.1 128Z" fill="#323232"/>
</svg>
