<svg width="53" height="56" viewBox="0 0 53 56" fill="none" xmlns="http://www.w3.org/2000/svg">
<g clip-path="url(#clip0_12_535)">
<path d="M52.0046 11.3668C50.1822 12.2186 48.2244 12.7942 46.1663 13.0544C48.2899 11.7139 49.8787 9.60422 50.6361 7.11889C48.641 8.36905 46.4574 9.24903 44.1802 9.72056C42.6489 7.99578 40.6207 6.85257 38.4104 6.46841C36.2001 6.08426 33.9314 6.48066 31.9565 7.59606C29.9816 8.71147 28.4111 10.4835 27.4887 12.637C26.5663 14.7905 26.3437 17.205 26.8554 19.5056C22.8127 19.2915 18.8579 18.183 15.2476 16.2522C11.6372 14.3213 8.45212 11.6112 5.89892 8.2977C5.02591 9.88633 4.52394 11.7282 4.52394 13.6898C4.52296 15.4557 4.93519 17.1946 5.72405 18.7521C6.51292 20.3096 7.65402 21.6377 9.04611 22.6184C7.43165 22.5642 5.85281 22.104 4.441 21.2761V21.4143C4.44084 23.891 5.25297 26.2915 6.73959 28.2085C8.22621 30.1255 10.2958 31.4409 12.5971 31.9315C11.0994 32.3591 9.52918 32.422 8.00505 32.1157C8.65434 34.2468 9.9191 36.1103 11.6223 37.4455C13.3255 38.7806 15.3818 39.5205 17.5034 39.5615C13.9018 42.544 9.45399 44.1618 4.87532 44.1547C4.06426 44.155 3.25388 44.105 2.44836 44.0051C7.09598 47.1574 12.5061 48.8304 18.0315 48.8239C36.7357 48.8239 46.9608 32.4817 46.9608 18.3084C46.9608 17.8479 46.9499 17.3828 46.9302 16.9224C48.9191 15.405 50.6359 13.5261 52.0002 11.3737L52.0046 11.3668Z" fill="white"/>
</g>
<defs>
<clipPath id="clip0_12_535">
<rect width="52.3804" height="55.2568" fill="white" transform="translate(0.40332)"/>
</clipPath>
</defs>
</svg>
