<svg width="36" height="40" viewBox="0 0 36 40" fill="none" xmlns="http://www.w3.org/2000/svg">
<path d="M18 0L0 7.27273V18.1818C0 28.2727 7.68 37.7091 18 40C28.32 37.7091 36 28.2727 36 18.1818V7.27273L18 0ZM18 7.09091C19.1867 7.09091 20.3467 7.41081 21.3334 8.01017C22.3201 8.60952 23.0892 9.4614 23.5433 10.4581C23.9974 11.4548 24.1162 12.5515 23.8847 13.6096C23.6532 14.6677 23.0818 15.6396 22.2426 16.4024C21.4035 17.1652 20.3344 17.6847 19.1705 17.8952C18.0067 18.1057 16.8003 17.9976 15.7039 17.5848C14.6075 17.172 13.6705 16.4728 13.0112 15.5758C12.3519 14.6788 12 13.6243 12 12.5455C12 11.0988 12.6321 9.71143 13.7574 8.68851C14.8826 7.66558 16.4087 7.09091 18 7.09091ZM18 21.4545C22 21.4545 30 23.4364 30 27.0545C28.6865 28.8548 26.9033 30.3315 24.8095 31.353C22.7156 32.3746 20.3763 32.9092 18 32.9092C15.6237 32.9092 13.2844 32.3746 11.1905 31.353C9.09673 30.3315 7.31354 28.8548 6 27.0545C6 23.4364 14 21.4545 18 21.4545Z" fill="white"/>
</svg>
