<svg width="54" height="56" viewBox="0 0 54 56" fill="none" xmlns="http://www.w3.org/2000/svg">
<g clip-path="url(#clip0_12_529)">
<path d="M52.096 14.9814C51.7994 13.8653 51.2217 12.8549 50.4242 12.0574C49.6042 11.2355 48.5992 10.6476 47.504 10.3491C43.4052 9.20941 26.984 9.20942 26.984 9.20942C20.1381 9.12725 13.294 9.48863 6.49016 10.2915C5.39495 10.612 4.39181 11.2131 3.56995 12.0413C2.76242 12.861 2.17751 13.8717 1.87196 14.9791C1.13796 19.1504 0.781336 23.3859 0.806889 27.6283C0.780699 31.867 1.13645 36.101 1.87196 40.2775C2.17096 41.3804 2.75369 42.3865 3.56341 43.1992C4.37312 44.012 5.38144 44.5991 6.49016 44.9099C10.6435 46.0473 26.984 46.0473 26.984 46.0473C33.8385 46.1295 40.6914 45.7682 47.504 44.9651C48.5992 44.6667 49.6042 44.0787 50.4242 43.2568C51.2214 42.4595 51.7985 41.4489 52.0938 40.3328C52.847 36.1631 53.2132 31.9259 53.1873 27.6813C53.2439 23.4187 52.8782 19.1615 52.096 14.9791V14.9814ZM21.7634 35.5116V19.7473L35.4259 27.6306L21.7634 35.5116Z" fill="white"/>
</g>
<defs>
<clipPath id="clip0_12_529">
<rect width="52.3804" height="55.2568" fill="white" transform="translate(0.806885)"/>
</clipPath>
</defs>
</svg>
